<svg version="1.1" id="Layer_1" xmlns:x="ns_extend;" xmlns:i="ns_ai;" xmlns:graph="ns_graphs;" xmlns="http://www.w3.org/2000/svg" xmlns:xlink="http://www.w3.org/1999/xlink" x="0px" y="0px" viewBox="0 0 403 83" style="enable-background:new 0 0 403 83;" xml:space="preserve">
 <style type="text/css">
  .st0{fill:#C6F300;}
	.st1{fill:#FFFFFF;}
 </style>
 <metadata>
  <sfw xmlns="ns_sfw;">
   <slices>
   </slices>
   <sliceSourceBounds bottomLeftOrigin="true" height="83" width="403" x="-1.5" y="-241.5">
   </sliceSourceBounds>
  </sfw>
 </metadata>
 <g>
  <path class="st0" d="M394.7,32.1c-3.2,0-5.9,2.6-5.9,5.9c0,3.3,2.6,5.9,5.9,5.9c3.2,0,5.9-2.6,5.9-5.9
		C400.6,34.7,398,32.1,394.7,32.1z">
  </path>
  <path class="st1" d="M385.2,45.7l-9.8,5.3c0.1,0.4,0.1,0.9,0.1,1.4c0,5.2-4.2,9.5-9.5,9.4c-5.2,0-9.5-4.2-9.4-9.5
		c0-5.2,4.2-9.5,9.5-9.4c2.8,0,5.2,1.2,6.9,3.1l9.1-4.9l-12.2-18.4c-0.1,0-0.2,0-0.3,0c-2.8,0-5.1-2.3-5.1-5.1s2.3-5.1,5.1-5.1
		c2.8,0,5.1,2.3,5.1,5.1c0,1-0.3,1.8-0.7,2.6l7.1,10.7c3.8-3.2,6.2-8,6.2-13.3C387.4,8,379.6,0,369.9,0c-9.7,0-17.6,7.9-17.7,17.6
		c0,5.1,2.2,9.8,5.7,13c-8.8,3.3-15.1,11.8-15.1,21.7c0,12.8,10.4,23.3,23.2,23.3c7.1,0,13.5-3.2,17.8-8.2l3.4,5.2H403L385.2,45.7z">
  </path>
  <path class="st1" d="M248.9,13c-1.4,0-2.5,0.5-3.4,1.4c-0.9,0.9-1.4,2.1-1.4,3.4s0.4,2.5,1.4,3.4c0.9,0.9,2.1,1.4,3.4,1.4
		c1.4,0,2.5-0.4,3.4-1.4c0.9-0.9,1.4-2.1,1.4-3.4s-0.5-2.5-1.4-3.4C251.3,13.5,250.2,13,248.9,13z">
  </path>
  <path class="st1" d="M104.3,30.4c-2.8,0-5.5,0.6-8,1.9c-2.2,1.1-4,2.8-5.3,5c-1.2-2-2.8-3.6-4.9-4.8c-2.4-1.4-5.2-2.1-8.4-2.1
		c-2.4,0-4.8,0.5-7,1.4c-1.7,0.7-3.1,1.8-4.4,3.2v-3.9h-6.8v36.7h6.8V47.2c0-3.1,1-5.6,2.9-7.5c2-1.9,4.4-2.8,7.3-2.8
		c3,0,5.5,0.9,7.1,2.6c1.7,1.8,2.5,4.3,2.5,7.5v20.8H93V47.2c0-3.1,1-5.6,2.9-7.5c2-1.9,4.4-2.8,7.3-2.8c3,0,5.5,0.9,7.1,2.6
		c1.7,1.8,2.5,4.3,2.5,7.5v20.8h6.8V45.2c0-4.4-1.4-8-4.3-10.7C112.6,31.8,108.9,30.4,104.3,30.4z">
  </path>
  <path class="st1" d="M148.7,30.4c-5.1,0-9.2,1.7-12.3,5v-4.2h-6.8V83h6.8V63.6c3.1,3.3,7.2,5,12.3,5c5.2,0,9.6-1.8,13-5.4
		c3.5-3.6,5.3-8.2,5.3-13.6s-1.8-10-5.3-13.6C158.3,32.2,153.9,30.4,148.7,30.4z M160.1,49.5c0,3.6-1.1,6.6-3.4,9
		c-2.2,2.4-5.1,3.6-8.7,3.6c-3.5,0-6.4-1.2-8.6-3.6c-2.3-2.4-3.4-5.4-3.4-9c0-3.6,1.2-6.6,3.4-9c2.3-2.4,5.1-3.6,8.6-3.6
		c3.5,0,6.4,1.2,8.6,3.6C159,42.9,160.1,45.9,160.1,49.5z">
  </path>
  <path class="st1" d="M191.2,30.4c-5.2,0-9.7,1.8-13,5.4S173,44,173,49.5c0,5.6,1.7,10.2,5.2,13.7c3.4,3.5,7.9,5.3,13.3,5.3
		c6,0,11-1.9,15-5.7l0.4-0.4l-3.7-4.8l-0.5,0.4c-3.1,2.8-6.8,4.3-10.8,4.3c-3.2,0-5.9-1-8.1-2.8c-2.1-1.8-3.3-4.3-3.8-7.5h28.3
		l0.1-0.5c0.1-0.6,0.1-1.4,0.1-2.2c0-5.5-1.7-10.1-4.9-13.6C200.3,32.2,196.2,30.4,191.2,30.4z M180.1,46.3c0.5-2.8,1.7-5.1,3.5-6.9
		c2-1.9,4.5-2.8,7.5-2.8c2.8,0,5.2,0.9,7.1,2.8c1.8,1.7,2.8,4.1,3.3,6.9H180.1L180.1,46.3z">
  </path>
  <path class="st1" d="M232.3,30.4c-2.3,0-4.4,0.5-6.3,1.5c-1.4,0.7-2.6,1.7-3.7,2.9v-3.8h-6.8v36.7h6.8V47.4c0-3.1,0.8-5.7,2.5-7.6
		c1.6-1.9,3.8-2.8,6.4-2.8c2.2,0,4.2,0.4,5.8,1.4l0.7,0.4l1.6-6.8l-0.4-0.2C237.3,30.8,235,30.4,232.3,30.4z">
  </path>
  <rect x="245.4" y="31.1" class="st1" width="6.8" height="36.7">
  </rect>
  <path class="st1" d="M286.6,59.7c-2.2,1.6-4.6,2.4-7.1,2.4c-2,0-3.5-0.6-4.7-1.8c-1.2-1.2-1.7-3.1-1.7-5.5V37.4H287l-3.8-6.3h-10.2
		V19.9h-6.8v11.3h-7.7v6.3h7.7v17.4c0,4.5,1.1,8,3.3,10.3c2.2,2.3,5.4,3.5,9.5,3.5c4.1,0,7.7-1.2,10.9-3.6l0.4-0.3l-3.2-5.2
		L286.6,59.7z">
  </path>
  <polygon class="st1" points="323.6,31.1 311.8,51.6 298.3,31.1 290.5,31.1 308.3,57.9 294,82.9 301.5,82.9 330.7,31.7 331.1,31.1 	
		">
  </polygon>
  <path class="st1" d="M30.3,14.2H22L0,67.8h7.6l5.9-14.6h25.1l5.9,14.6h7.7l-22-53.4L30.3,14.2z M35.8,46.3H16.3l9.8-24L35.8,46.3z">
  </path>
 </g>
</svg>